<?xml version="1.0" standalone="no"?>
<!DOCTYPE svg PUBLIC "-//W3C//DTD SVG 20010904//EN"
 "http://www.w3.org/TR/2001/REC-SVG-20010904/DTD/svg10.dtd">
<svg version="1.0" xmlns="http://www.w3.org/2000/svg"
 width="213.000000pt" height="213.000000pt" viewBox="0 0 213.000000 213.000000"
 preserveAspectRatio="xMidYMid meet">
<metadata>
Created by potrace 1.14, written by Peter Selinger 2001-2017
</metadata>
<g transform="translate(0.000000,213.000000) scale(0.100000,-0.100000)"
fill="#000000" stroke="none">
<path d="M906 1859 c-60 -40 -102 -102 -123 -182 -15 -58 -15 -67 -1 -111 l16
-49 -46 -56 c-64 -79 -113 -156 -169 -269 -43 -87 -48 -105 -51 -177 -5 -108
20 -176 86 -236 27 -24 57 -49 68 -55 18 -11 17 -13 -11 -23 -82 -30 -115 -65
-122 -133 -6 -48 16 -104 43 -115 20 -7 19 -141 -1 -190 -17 -40 -13 -52 10
-33 10 8 15 9 15 1 0 -7 25 -11 70 -11 l70 0 0 54 c0 30 5 67 10 82 10 25 12
26 26 12 10 -10 18 -41 21 -82 l6 -66 318 0 319 0 0 38 0 37 18 -35 17 -35 78
-3 c44 -2 77 1 75 5 -41 82 -63 134 -74 176 -12 47 -12 53 5 72 31 34 41 61
41 112 0 79 -62 150 -148 168 l-34 7 21 22 c72 76 88 235 38 378 -14 42 -46
109 -69 149 -54 91 -184 229 -255 272 -51 30 -53 34 -46 62 13 50 8 138 -11
173 -40 76 -130 94 -210 41z m29 -39 c-3 -5 -13 -10 -21 -10 -8 0 -12 5 -9 10
3 6 13 10 21 10 8 0 12 -4 9 -10z m-65 -50 c-12 -16 -25 -30 -30 -30 -14 0
-22 -40 -11 -54 12 -15 4 -76 -10 -76 -13 0 -11 97 2 123 15 29 50 67 61 67 5
0 0 -13 -12 -30z m0 -50 c0 -5 -4 -10 -10 -10 -5 0 -10 5 -10 10 0 6 5 10 10
10 6 0 10 -4 10 -10z m256 -342 c30 -14 47 -54 34 -78 -13 -24 -52 -36 -177
-55 -152 -22 -199 -20 -228 10 -67 66 9 118 200 134 96 9 137 6 171 -11z
m-445 -70 c-58 -106 -91 -213 -91 -293 0 -82 18 -127 76 -186 39 -39 43 -47
30 -58 -12 -10 -22 -5 -59 28 -122 113 -114 259 28 501 26 44 49 80 51 80 3 0
-13 -33 -35 -72z m357 -330 c-3 -56 -5 -63 -25 -66 -19 -3 -21 2 -25 57 -3 61
1 69 35 70 16 1 18 -7 15 -61z m-68 -8 c0 -33 -4 -60 -10 -60 -16 0 -30 37
-30 79 0 34 3 41 20 41 18 0 20 -7 20 -60z m-221 -219 l21 -29 -29 11 c-20 7
-27 15 -23 29 6 24 7 23 31 -11z m48 -297 c9 -25 -12 -38 -31 -19 -9 9 -14 21
-11 26 10 14 35 10 42 -7z m-167 -174 l-11 -25 6 25 c2 14 5 34 6 45 2 19 2
19 6 0 2 -12 -1 -32 -7 -45z"/>
</g>
</svg>
